<svg width="120" height="55" viewBox="0 0 120 55" fill="none" xmlns="http://www.w3.org/2000/svg">
<g filter="url(#filter0_f_281_452)">
<g filter="url(#filter1_d_281_452)">
<path d="M85.6504 30.5579L83.7 30.6169C83.6681 30.4927 83.6392 30.3833 83.6131 30.2847C83.5619 30.0906 83.5217 29.9384 83.4915 29.798C83.1087 28.0191 82.3629 26.4306 81.2225 25.0393C79.7556 23.2498 77.9142 22.0103 75.7222 21.257C73.5905 20.7654 71.5634 20.6346 69.598 21.2751L69.598 21.2751C69.0771 21.4448 68.6112 21.6642 68.0652 21.9213C67.7812 22.0551 67.4755 22.199 67.1291 22.3515L65.7262 22.9692V21.4363V21.4312C65.7262 21.1637 65.7262 20.8634 65.742 20.4999C65.7575 19.5224 65.7604 18.5945 65.7637 17.57C65.764 17.4827 65.7642 17.3946 65.7645 17.3058C65.764 17.298 65.7634 17.2904 65.7629 17.283L60.6332 12.3339C60.6281 12.508 60.6232 12.6699 60.6183 12.8308C60.6351 14.3071 60.6519 15.7849 60.6676 17.4006L60.6677 17.4116L60.6676 17.4226C60.6553 18.4188 60.6441 19.2799 60.6329 20.1388C60.6366 20.1937 60.6415 20.2568 60.6468 20.3253C60.6639 20.5475 60.6856 20.8274 60.6851 21.0758C60.6834 22.0203 60.682 22.9651 60.6806 23.9101C60.6746 28.0084 60.6685 32.1105 60.6361 36.2119L59.6361 36.204L60.6361 36.2119C60.6335 36.5325 60.6749 36.7553 60.7448 36.9325C60.813 37.1055 60.9285 37.2863 61.1448 37.4948L60.4513 38.2144L61.1448 37.4948C62.402 38.7064 63.653 39.9535 64.897 41.1936C65.7809 42.0747 66.6611 42.9523 67.5375 43.811C67.5424 43.8157 67.5559 43.8277 67.5787 43.8432C67.6011 43.8583 67.6264 43.8727 67.6521 43.8846C67.6775 43.8963 67.6973 43.9028 67.709 43.9059C71.3172 43.929 74.9261 43.9302 78.5375 43.9278C77.6321 43.0825 76.7227 42.2305 75.8311 41.3662C75.1524 40.7083 74.4927 40.0148 73.8371 39.3256C73.6974 39.1787 73.5578 39.032 73.4184 38.8859C72.3674 39.1962 71.2106 39.113 70.1646 38.7771C68.9566 38.3892 67.7969 37.6345 66.9902 36.5834C64.9536 33.9302 65.1547 30.0095 67.4961 27.658C69.8406 25.3034 73.6616 25.0464 76.2229 27.1239C78.9084 29.3022 79.4597 33.137 77.5905 36.1662L77.5265 36.27L77.4667 36.3286L77.233 36.6435L80.8544 40.3786C82.1839 38.9258 83.1185 37.3854 83.5776 35.6904L84.2391 33.2484L85.426 35.4827L88.1048 40.5257L88.4422 41.1608L87.9475 41.6827L85.8109 43.9371C91.197 43.9389 96.5816 43.94 101.966 43.9256C102.454 43.7545 102.865 43.5021 103.165 43.2787C103.326 43.1583 103.45 43.0504 103.531 42.9757C103.571 42.9385 103.6 42.91 103.617 42.8928L103.626 42.8839C103.943 42.5143 104.255 42.159 104.563 41.8099C105.247 41.0327 105.905 40.2857 106.52 39.4778C107.463 38.2377 108.069 36.7758 108.513 35.0609C108.97 32.8229 109.109 30.8217 108.44 28.9854C108.012 27.8095 107.932 26.6718 107.917 25.6178C107.897 25.6384 107.877 25.6589 107.856 25.6793L85.6504 30.5579ZM85.6504 30.5579C86.4126 26.6148 88.8971 24.0937 91.8418 21.5617L91.1899 20.8035M85.6504 30.5579L91.1899 20.8035M91.1899 20.8035L91.8419 21.5617C92.2904 21.1761 92.6589 21.0204 93.2093 21.0253C96.883 21.0585 100.559 21.052 104.229 21.0455C104.886 21.0444 105.544 21.0432 106.201 21.0423M91.1899 20.8035L106.201 21.0423M106.201 21.0423L101.06 26.4978C100.896 26.4417 100.737 26.3855 100.577 26.329C100.388 26.2621 100.198 26.1949 99.9974 26.127C99.4643 25.9463 98.9022 25.7767 98.3049 25.6986C94.7773 25.2372 91.6022 27.5357 90.8525 30.9344C90.1354 34.1849 91.9212 37.5125 95.0743 38.6474C97.5833 39.5504 99.882 38.912 101.707 37.1469C103.59 35.3251 104.337 32.9607 103.534 30.3428C103.493 30.2082 103.478 30.1214 103.474 30.0679C103.471 30.0199 103.476 30.0016 103.477 29.9982L103.477 29.998L103.477 29.9979C103.478 29.994 103.497 29.921 103.694 29.7368C104.819 28.6874 105.914 27.602 106.997 26.5291C107.284 26.2447 107.57 25.9611 107.856 25.6793L106.201 21.0423Z" stroke="#F03333" stroke-opacity="0.5" stroke-width="2" shape-rendering="crispEdges"/>
</g>
<g filter="url(#filter2_d_281_452)">
<path d="M52.3294 43.9967C51.7287 43.9956 51.128 43.9946 50.5273 43.9935C43.4916 43.9812 36.4583 43.9688 29.425 43.9289C29.4282 43.9289 29.4105 43.9289 29.3711 43.9184C29.3328 43.9081 29.2847 43.8908 29.2305 43.8649C29.1167 43.8106 29.0177 43.7389 28.9576 43.6798L28.2565 44.3929L28.9576 43.6798C26.303 41.0705 23.6646 38.446 21.0238 35.8192C20.1019 34.9022 19.1798 33.9849 18.2565 33.0679L17.9865 33.3398L18.2565 33.0679C18.1446 32.9567 18.0313 32.8674 17.9375 32.7953C17.9054 32.7705 17.8751 32.7475 17.845 32.7246C17.7785 32.6741 17.7128 32.6242 17.6289 32.5574L16.0061 31.2657V33.3398V33.3629V33.3859V33.409V33.4321V33.4551V33.4782V33.5013V33.5243V33.5474V33.5704V33.5935V33.6165V33.6395V33.6626V33.6856V33.7086V33.7317V33.7547V33.7777V33.8007V33.8237V33.8467V33.8697V33.8927V33.9157V33.9387V33.9617V33.9847V34.0077V34.0307V34.0537V34.0766V34.0996V34.1226V34.1455V34.1685V34.1915V34.2144V34.2374V34.2603V34.2833V34.3062V34.3291V34.3521V34.375V34.3979V34.4209V34.4438V34.4667V34.4896V34.5126V34.5355V34.5584V34.5813V34.6042V34.6271V34.65V34.6729V34.6958V34.7187V34.7415V34.7644V34.7873V34.8102V34.833V34.8559V34.8788V34.9017V34.9245V34.9474V34.9702V34.9931V35.0159V35.0388V35.0616V35.0845V35.1073V35.1301V35.153V35.1758V35.1986V35.2215V35.2443V35.2671V35.2899V35.3127V35.3355V35.3583V35.3812V35.404V35.4268V35.4496V35.4723V35.4951V35.5179V35.5407V35.5635V35.5863V35.6091V35.6318V35.6546V35.6774V35.7002V35.7229V35.7457V35.7684V35.7912V35.814V35.8367V35.8595V35.8822V35.905V35.9277V35.9504V35.9732V35.9959V36.0187V36.0414V36.0641V36.0868V36.1096V36.1323V36.155V36.1777V36.2004V36.2232V36.2459V36.2686V36.2913V36.314V36.3367V36.3594V36.3821V36.4048V36.4275V36.4502V36.4728V36.4955V36.5182V36.5409V36.5636V36.5862V36.6089V36.6316V36.6543V36.6769V36.6996V36.7223V36.7449V36.7676V36.7902V36.8129V36.8355V36.8582V36.8808V36.9035V36.9261V36.9488V36.9714V36.9941V37.0167V37.0393V37.062V37.0846V37.1072V37.1298V37.1525V37.1751V37.1977V37.2203V37.2429V37.2656V37.2882V37.3108V37.3334V37.356V37.3786V37.4012V37.4238V37.4464V37.469V37.4916V37.5142V37.5368V37.5594V37.582V37.6046V37.6272V37.6497V37.6723V37.6949V37.7175V37.7401V37.7626V37.7852V37.8078V37.8303V37.8529V37.8755V37.898V37.9206V37.9432V37.9657V37.9883V38.0109V38.0334V38.056V38.0785V38.1011V38.1236V38.1462V38.1687V38.1913V38.2138V38.2363V38.2589V38.2814V38.304V38.3265V38.349V38.3716V38.3941V38.4166V38.4392V38.4617V38.4842V38.5067V38.5293V38.5518V38.5743V38.5968V38.6193V38.6419V38.6644V38.6869V38.7094V38.7319V38.7544V38.7769V38.7994V38.8219V38.8445V38.867V38.8895V38.912V38.9345V38.957V38.9795V39.002V39.0245V39.0469V39.0694V39.0919V39.1144V39.1369V39.1594V39.1819V39.2044V39.2269V39.2494V39.2718V39.2943V39.3168V39.3393V39.3618V39.3842V39.4067V39.4292V39.4517V39.4741V39.4966V39.5191V39.5416V39.564V39.5865V39.609V39.6314V39.6539V39.6764V39.6988V39.7213V39.7438V39.7662V39.7887V39.8112V39.8336V39.8561V39.8785V39.901V39.9235V39.9459V39.9684V39.9908V40.0133V40.0357V40.0582V40.0806V40.1031V40.1255V40.148V40.1704V40.1929V40.2153V40.2378V40.2602V40.2827V40.3051V40.3276V40.35V40.3725V40.3949V40.4173V40.4398V40.4622V40.4847V40.5071V40.5296V40.552V40.5744V40.5969V40.6193V40.6417V40.6642V40.6866V40.7091V40.7315V40.7539V40.7764V40.7988V40.8212V40.8437V40.8661V40.8885V40.911V40.9334V40.9558V40.9783V41.0007V41.0231V41.0456V41.068V41.0904V41.1129V41.1353V41.1577V41.1801V41.2026V41.225V41.2474V41.2699V41.2923V41.3147V41.3371V41.3596V41.382V41.4044V41.4269V41.4493V41.4717V41.4941V41.5166V41.539V41.5614V41.5838V41.6063V41.6287V41.6511V41.6736V41.696V41.7184V41.7408V41.7633V41.7857V41.8081V41.8305V41.853V41.8754V41.8978V41.9202V41.9427V41.9651V41.9875V42.01V42.0324V42.0548V42.0772V42.0997V42.1221V42.1445V42.167V42.1894V42.2118V42.2342V42.2567V42.2791V42.3015V42.324V42.3464V42.3688V42.3913V42.4137V42.4361V42.4585V42.481V42.5034V42.5258V42.5483V42.5707V42.5931V42.6156V42.638V42.6605V42.6829V42.7053V42.7278V42.7502V42.7726V42.7951V42.8175V42.84V42.8624V42.8848V42.9073V42.9297V42.9521V42.9746V42.997V43.0195V43.0419V43.0644V43.0868V43.1093V43.1317V43.1541V43.1766V43.199V43.2215V43.2439V43.2664V43.2888V43.3113V43.3337V43.3562V43.3786V43.4011V43.4236V43.446V43.4685V43.4909V43.5134V43.5358V43.5583V43.5808V43.6032V43.6257V43.6481V43.6706V43.6931V43.7155V43.738V43.7605V43.7829V43.8054V43.8279V43.8503V43.8728V43.8953V43.9076H16.0056H15.9918H15.9779H15.9641H15.9502H15.9364H15.9226H15.9087H15.8949H15.8811H15.8672H15.8534H15.8396H15.8258H15.8119H15.7981H15.7843H15.7705H15.7566H15.7428H15.729H15.7152H15.7014H15.6875H15.6737H15.6599H15.6461H15.6323H15.6185H15.6047H15.5909H15.5771H15.5633H15.5495H15.5357H15.5219H15.5081H15.4943H15.4805H15.4667H15.4529H15.4391H15.4253H15.4115H15.3977H15.3839H15.3702H15.3564H15.3426H15.3288H15.315H15.3012H15.2875H15.2737H15.2599H15.2461H15.2324H15.2186H15.2048H15.1911H15.1773H15.1635H15.1497H15.136H15.1222H15.1085H15.0947H15.0809H15.0672H15.0534H15.0397H15.0259H15.0121H14.9984H14.9846H14.9709H14.9571H14.9434H14.9296H14.9159H14.9021H14.8884H14.8747H14.8609H14.8472H14.8334H14.8197H14.8059H14.7922H14.7785H14.7647H14.751H14.7373H14.7235H14.7098H14.6961H14.6823H14.6686H14.6549H14.6412H14.6274H14.6137H14.6H14.5863H14.5725H14.5588H14.5451H14.5314H14.5177H14.504H14.4902H14.4765H14.4628H14.4491H14.4354H14.4217H14.408H14.3943H14.3806H14.3669H14.3531H14.3394H14.3257H14.312H14.2983H14.2846H14.2709H14.2572H14.2435H14.2298H14.2162H14.2025H14.1888H14.1751H14.1614H14.1477H14.134H14.1203H14.1066H14.0929H14.0792H14.0656H14.0519H14.0382H14.0245H14.0108H13.9972H13.9835H13.9698H13.9561H13.9424H13.9288H13.9151H13.9014H13.8877H13.8741H13.8604H13.8467H13.8331H13.8194H13.8057H13.792H13.7784H13.7647H13.751H13.7374H13.7237H13.7101H13.6964H13.6827H13.6691H13.6554H13.6418H13.6281H13.6144H13.6008H13.5871H13.5735H13.5598H13.5462H13.5325H13.5189H13.5052H13.4916H13.4779H13.4643H13.4506H13.437H13.4233H13.4097H13.396H13.3824H13.3687H13.3551H13.3415H13.3278H13.3142H13.3005H13.2869H13.2733H13.2596H13.246H13.2324H13.2187H13.2051H13.1915H13.1778H13.1642H13.1506H13.1369H13.1233H13.1097H13.096H13.0824H13.0688H13.0552H13.0415H13.0279H13.0143H13.0007H12.987H12.9734H12.9598H12.9462H12.9325H12.9189H12.9053H12.8917H12.8781H12.8644H12.8508H12.8372H12.8236H12.81H12.7964H12.7828H12.7691H12.7555H12.7419H12.7283H12.7147H12.7011H12.6875H12.6739H12.6603H12.6466H12.633H12.6194H12.6058H12.5922H12.5786H12.565H12.5514H12.5378H12.5242H12.5106H12.497H12.4834H12.4698H12.4562H12.4426H12.429H12.4154H12.4018H12.3882H12.3746H12.361H12.3474H12.3338H12.3202H12.3066H12.293H12.2794H12.2658H12.2522H12.2386H12.2251H12.2115H12.1979H12.1843H12.1707H12.1571H12.1435H12.1299H12.1163H12.1028H12.0892H12.0756H12.062H12.0484H12.0348H12.0212H12.0076H11.9941H11.9805H11.9669H11.9533H11.9397H11.9261H11.9126H11.899H11.8854H11.8718H11.8582H11.8447H11.8311H11.8175H11.8039H11.7903H11.7768H11.7632H11.7496H11.736H11.7225H11.7089H11.6953H11.6817H11.6682H11.6546H11.641H11.6274H11.6139H11.6003H11.5867H11.5731H11.5596H11.546H11.5324H11.5188H11.5053H11.4917H11.4781H11.4646H11.451H11.4374H11.4239H11.4103H11.3967H11.3831H11.3696H11.356H11.3424H11.3289H11.3153H11.3017H11.2882H11.2746H11.261H11.2475H11.2339H11.2203H11.2068H11.1932H11.1796H11.1661H11.1525H11.139H11.1254H11.1118H11.0983H11.0847H11.0711H11.0576H11.044H11.0304H11.0169H11.0033H11V43.888V43.82V43.7521V43.6841V43.6161V43.5481V43.4802V43.4122V43.3442V43.2763V43.2083V43.1403V43.0723V43.0044V42.9364V42.8684V42.8005V42.7325V42.6645V42.5965V42.5286V42.4606V42.3926V42.3247V42.2567V42.1887V42.1207V42.0528V41.9848V41.9168V41.8489V41.7809V41.7129V41.6449V41.577V41.509V41.441V41.3731V41.3051V41.2371V41.1691V41.1012V41.0332V40.9652V40.8973V40.8293V40.7613V40.6933V40.6254V40.5574V40.4894V40.4215V40.3535V40.2855V40.2175V40.1496V40.0816V40.0136V39.9456V39.8777V39.8097V39.7417V39.6737V39.6058V39.5378V39.4698V39.4018V39.3339V39.2659V39.1979V39.1299V39.062V38.994V38.926V38.858V38.7901V38.7221V38.6541V38.5861V38.5181V38.4502V38.3822V38.3142V38.2462V38.1782V38.1103V38.0423V37.9743V37.9063V37.8383V37.7703V37.7024V37.6344V37.5664V37.4984V37.4304V37.3624V37.2945V37.2265V37.1585V37.0905V37.0225V36.9545V36.8865V36.8185V36.7506V36.6826V36.6146V36.5466V36.4786V36.4106V36.3426V36.2746V36.2066V36.1386V36.0706V36.0026V35.9346V35.8666V35.7986V35.7306V35.6626V35.5947V35.5267V35.4587V35.3907V35.3227V35.2546V35.1866V35.1186V35.0506V34.9826V34.9146V34.8466V34.7786V34.7106V34.6426V34.5746V34.5066V34.4386V34.3706V34.3026V34.2345V34.1665V34.0985V34.0305V33.9625V33.8945V33.8265V33.7584V33.6904V33.6224V33.5544V33.4864V33.4184V33.3503V33.2823V33.2143V33.1463V33.0782V33.0102V32.9422V32.8742V32.8061V32.7381V32.6701V32.602V32.534V32.466V32.398V32.3299V32.2619V32.1938V32.1258V32.0578V31.9897V31.9217V31.8537V31.7856V31.7176V31.6495V31.5815V31.5134V31.4454V31.3774V31.3093V31.2413V31.1732V31.1052V31.0371V30.9691V30.901V30.8329V30.7649V30.6968V30.6288V30.5607V30.4927V30.4246V30.3565V30.2885V30.2204V30.1523V30.0843V30.0162V29.9481V29.8801V29.812V29.7439V29.6759V29.6078V29.5397V29.4716V29.4036V29.3355V29.2674V29.1993V29.1312V29.0632V28.9951V28.927V28.8589V28.7908V28.7227V28.6546V28.5865V28.5185V28.4504V28.3823V28.3142V28.2461V28.178V28.1099V28.0418V27.9737V27.9056V27.8375V27.7694V27.7013V27.6331V27.565V27.4969V27.4288V27.3607V27.2926V27.2245V27.1563V27.0882V27.0201V26.952V26.8839V26.8157V26.7476V26.6795V26.6114V26.5432V26.4751V26.407V26.3388V26.2707V26.2025V26.1344V26.0663V25.9981V25.93V25.8618V25.7937V25.7255V25.6574V25.5892V25.5211V25.4529V25.3848V25.3166V25.2485V25.1803V25.1122V25.044V24.9758V24.9077V24.8395V24.7713V24.7032V24.635V24.5668V24.4986V24.4305V24.3623V24.2941V24.2259V24.1577V24.0896V24.0214V23.9532V23.885V23.8168V23.7486V23.6804V23.6122V23.544V23.4758V23.4076V23.3394V23.2712V23.203V23.1348V23.0666V22.9984V22.9302V22.8619V22.7937V22.7255V22.6573V22.5891V22.5208V22.4526V22.3844V22.3162V22.2479V22.1797V22.1115V22.0432V21.975V21.9068V21.8385V21.7703V21.702V21.6338V21.5655V21.4973V21.429V21.3608V21.2925V21.2243V21.156V21.0877V21.0195V20.9512V20.8829V20.8147V20.7464V20.6781V20.6098V20.5416V20.4733V20.405V20.3367V20.2684V20.2002V20.1319V20.0636V19.9953V19.927V19.8587V19.7904V19.7221V19.6538V19.5855V19.5172V19.4489V19.3806V19.3122V19.2439V19.1756V19.1073V19.039V18.9707V18.9023V18.834V18.7657V18.6973V18.629V18.5607V18.4923V18.424V18.3556V18.2873V18.219V18.1506V18.0823V18.0139V17.9455V17.8772V17.8088V17.7405V17.6721V17.6037V17.5354V17.467V17.3986V17.3303V17.2619V17.1935V17.1251V17.0567V16.9883V16.92V16.8516V16.7832V16.7148V16.6464V16.578V16.5096V16.4412V16.3728V16.3044V16.2359V16.1675V16.0991V16.0307V15.9623V15.8939V15.8254V15.757V15.6886V15.6201V15.5517V15.4833V15.4148V15.3464V15.2779V15.2095V15.141V15.0726V15.0041V14.9357V14.8672V14.7988V14.7303V14.6618V14.5934V14.5249V14.4564V14.3879V14.3195V14.251V14.1825V14.114V14.0455V13.977V13.9085V13.84V13.7715V13.703V13.6345V13.566V13.4975V13.429V13.3605V13.292V13.2235V13.1549V13.0864V13.0179V12.9494V12.8808V12.8123V12.7437V12.6752V12.6067V12.5381V12.4696V12.401V12.3969C12.4813 13.8601 14.0731 15.4227 15.4343 16.7336C15.6967 16.9863 15.8499 17.1673 15.9381 17.3298C16.0113 17.4646 16.0463 17.598 16.0249 17.7903L16.0195 17.8395L16.0189 17.8889C16.0098 18.6569 16.0006 19.4254 15.9906 20.3346L15.9904 20.3443L15.9905 20.3541C15.9982 21.2614 16.0068 22.029 16.0153 22.7948C16.0116 23.1306 16.0098 23.4807 16.0079 23.8451C16.0061 24.2123 16.0041 24.5939 16.0001 24.9898C15.9995 25.045 15.9987 25.1003 15.998 25.1552C15.9953 25.3552 15.9927 25.5492 15.9992 25.7079C15.996 25.8172 15.9964 25.9239 15.9967 26.023L15.9967 26.0382C15.9971 26.1592 15.9973 26.2848 15.9935 26.4389L15.9932 26.451L15.9932 26.4631C15.9928 26.8843 15.9928 27.1794 15.9928 27.7189V30.0777L17.6881 28.4376C19.0858 27.0855 21.3896 25.0782 23.7083 23.0602L23.822 22.9612C25.9265 21.1297 28.0322 19.297 29.4013 18H34.6548C34.6107 18.0459 34.5659 18.0926 34.5204 18.14C33.4529 19.2522 32.0082 20.7563 30.4997 22.3245C27.4778 25.4658 24.2126 28.8501 23.1971 29.867L22.4811 30.5839L23.2073 31.2904L31.6837 39.5365L33.281 41.0905L33.38 38.8642C33.387 38.7081 33.3944 38.5671 33.4012 38.4376C33.4148 38.1792 33.426 37.9663 33.4262 37.7692C33.427 37.1738 33.4279 36.5782 33.4288 35.9824C33.4329 33.3163 33.437 30.6463 33.4236 27.9769C33.4219 27.6443 33.4853 27.5051 33.6514 27.3425C34.6226 26.3917 35.5742 25.4485 36.5233 24.5078C37.6517 23.3893 38.7765 22.2744 39.9264 21.1546C39.927 21.1543 39.9276 21.154 39.9282 21.1536C39.9394 21.147 39.9587 21.1372 39.9853 21.1274C40.0116 21.1177 40.0391 21.1102 40.0644 21.1053C40.0903 21.1003 40.1068 21.0994 40.1117 21.0994C43.1915 21.0764 46.2707 21.0747 49.3487 21.1025C49.3479 21.1025 49.3482 21.1025 49.3496 21.1027C49.357 21.1038 49.3957 21.1093 49.4592 21.136C49.5318 21.1665 49.5926 21.2063 49.627 21.2362C50.2332 21.7614 50.8101 22.3066 51.4049 22.8687C51.579 23.0332 51.7547 23.1993 51.9331 23.3667L51.9385 23.3824L52.098 23.5444C53.3962 24.8634 54.6734 26.1503 55.9801 27.4105L56.6743 26.6906L55.9801 27.4105C56.0924 27.5188 56.1372 27.5941 56.1601 27.6488C56.1832 27.7037 56.2066 27.7909 56.2054 27.9523C56.1954 29.3801 56.1974 30.8075 56.1994 32.2299L56.1997 32.3957C56.2017 33.8745 56.2033 35.3481 56.1909 36.8207C56.1835 37.7111 56.4849 38.4185 57.1169 39.0244C58.8119 40.6494 60.495 42.2863 62.1811 43.9261C62.1934 43.9381 62.2057 43.95 62.218 43.962C60.8785 43.9623 59.5754 43.9608 58.2738 43.9498C58.2695 43.9457 58.2651 43.9415 58.2606 43.9372L58.2606 43.9371C56.5176 42.2456 54.7787 40.5574 53.0564 38.8534C52.3176 38.1224 51.5956 37.3822 50.8689 36.6373C50.7173 36.4818 50.5655 36.3262 50.4133 36.1704C51.7341 34.0976 51.9235 31.8214 50.8588 29.5501C49.7475 27.1792 47.7654 25.8849 45.1777 25.7011C42.6579 25.5221 40.1556 26.8987 39.0115 29.1536C37.7395 31.6608 37.9822 34.7052 39.7271 36.7864C41.3435 38.7143 44.2549 39.658 46.6758 38.7981C46.7457 38.7733 46.7901 38.7634 46.8143 38.7594C46.8179 38.7618 46.8219 38.7646 46.8265 38.7678C46.8656 38.7957 46.9224 38.8431 47.0115 38.929C48.3285 40.1985 49.6597 41.462 50.9876 42.7224C51.4355 43.1475 51.883 43.5722 52.3294 43.9967ZM52.3294 43.9967C52.8138 43.9975 53.2981 43.9984 53.7825 43.9993C53.0796 43.3293 52.3753 42.6608 51.671 41.9922C50.3459 40.7346 49.0208 39.4769 47.7055 38.209C47.2893 37.8078 46.9763 37.6302 46.3411 37.8558C44.3509 38.5627 41.8677 37.7831 40.4934 36.1439C39.0301 34.3986 38.7948 31.791 39.9033 29.6061C40.8605 27.7195 42.9775 26.5473 45.1069 26.6986C47.3492 26.8578 49.0026 27.9461 49.9534 29.9745C50.9015 31.9971 50.7019 33.9854 49.4317 35.8425C49.4152 35.8665 49.3987 35.8904 49.3822 35.9143C49.3265 35.9949 49.2708 36.0755 49.2198 36.159C49.203 36.1865 49.1947 36.2193 49.1845 36.2591C49.1793 36.2795 49.1736 36.3017 49.1661 36.3261M49.1661 36.3261C49.4927 36.6585 49.8189 36.9929 50.1456 37.3279C50.8754 38.076 51.6077 38.8268 52.3531 39.5643C54.0793 41.2722 55.8216 42.9637 57.5642 44.6548L50.1306 36.5912C50.1278 36.6008 50.1247 36.6109 50.1215 36.6214L50.1123 36.6186C50.0989 36.639 50.0863 36.6588 50.0736 36.6797M49.1661 36.3261L49.8305 36.5315L50.0735 36.6797C50.0735 36.6797 50.0736 36.6797 50.0736 36.6797M49.1661 36.3261L49.2916 36.2028M50.0736 36.6797C50.0871 36.6575 50.0984 36.6366 50.108 36.6173L49.8307 36.5316L50.0736 36.6797Z" stroke="#F03333" stroke-opacity="0.5" stroke-width="2" shape-rendering="crispEdges"/>
</g>
</g>
<g filter="url(#filter3_d_281_452)">
<path d="M84.1842 30.4925L85.1594 30.463C85.9563 26.3408 88.5606 23.7236 91.5159 21.1826L91.1899 20.8035L91.5159 21.1826C92.0397 20.7322 92.5221 20.5191 93.2138 20.5254C96.8846 20.5585 100.557 20.552 104.226 20.5455C105.271 20.5437 106.316 20.5419 107.36 20.5409L101.204 27.0736C100.923 26.9812 100.658 26.8878 100.397 26.7958C100.21 26.7297 100.025 26.6643 99.8369 26.6006C99.3121 26.4226 98.7874 26.2659 98.2401 26.1943C94.9738 25.7671 92.0355 27.8924 91.3407 31.0421C90.6768 34.0519 92.3317 37.1289 95.2436 38.177C97.5566 39.0094 99.6582 38.4328 101.359 36.7875C103.119 35.0848 103.799 32.912 103.056 30.4894C102.958 30.17 102.96 29.9902 102.995 29.8636C103.031 29.7355 103.122 29.5873 103.353 29.3713C104.471 28.3275 105.56 27.249 106.642 26.1767C106.93 25.8916 107.217 25.6068 107.505 25.3233C107.619 25.2104 107.726 25.0902 107.826 24.9783C107.839 24.9634 107.853 24.9485 107.866 24.9339C107.975 24.8121 108.083 24.6932 108.209 24.5711C108.28 24.5169 108.348 24.4638 108.415 24.4117C108.414 24.5387 108.414 24.6657 108.414 24.7924L108.414 24.8793C108.414 26.1405 108.414 27.4516 108.91 28.8143C109.628 30.7865 109.464 32.9039 109 35.1735C108.546 36.9326 107.917 38.467 106.918 39.7805C106.292 40.603 105.615 41.3719 104.924 42.1561C104.616 42.506 104.306 42.8589 103.995 43.221C103.991 43.2258 103.983 43.2338 103.972 43.2446C103.951 43.2666 103.917 43.3001 103.871 43.3425C103.779 43.4275 103.642 43.5471 103.464 43.6797C103.119 43.9361 102.635 44.2331 102.049 44.4253C96.3754 44.4407 90.7015 44.4388 85.0267 44.4368L84.6485 44.4367L87.5846 41.3388L87.8319 41.0778L87.6633 40.7603L84.9844 35.7173L84.391 34.6001L84.0602 35.8211C83.5335 37.7657 82.4191 39.4964 80.8593 41.102L76.5784 36.6867L77.0886 35.999C77.0889 35.9987 77.0892 35.9985 77.0895 35.9982L77.133 35.9555L77.165 35.9036C78.9114 33.0734 78.3848 29.5213 75.9079 27.5123C73.5524 25.6017 70.02 25.8318 67.8504 28.0108C65.6914 30.1791 65.4979 33.8181 67.3868 36.2789C68.125 37.2407 69.1953 37.9407 70.3174 38.301C71.3917 38.646 72.5587 38.6933 73.56 38.3107C73.7767 38.5366 73.992 38.7629 74.2068 38.9888C74.8595 39.6749 75.5081 40.3568 76.1791 41.0072C77.1706 41.9683 78.1822 42.9123 79.1898 43.8526C79.395 44.0441 79.6001 44.2355 79.8048 44.4268C75.7642 44.4302 71.7254 44.4317 67.6871 44.4058C67.5595 44.405 67.3284 44.3061 67.1876 44.1681C66.3037 43.302 65.4216 42.4226 64.5377 41.5414C63.2978 40.3054 62.0545 39.0659 60.7978 37.8548L60.4509 38.2148L60.7978 37.8548C60.5386 37.605 60.3782 37.366 60.2796 37.1159C60.1802 36.8637 60.1332 36.5737 60.1361 36.208C60.1685 32.1083 60.1746 28.0082 60.1806 23.91C60.182 22.9648 60.1834 22.0198 60.1851 21.0749L59.6851 21.074L60.1851 21.0749C60.1855 20.8476 60.1668 20.6056 60.1501 20.3893C60.1436 20.3055 60.1374 20.2256 60.1327 20.1519C60.144 19.2865 60.1553 18.42 60.1676 17.4164L60.1677 17.4164L60.1676 17.4054C60.1519 15.7883 60.1351 14.3093 60.1183 12.8312L60.1183 12.826C60.1292 12.4666 60.1402 12.105 60.1527 11.6125L60.1528 11.6126L60.1529 11.6012C60.1533 11.4523 60.1536 11.3126 60.1538 11.1766L66.243 17.0514C66.2504 17.113 66.2576 17.1874 66.2646 17.2891C66.2643 17.3843 66.264 17.4787 66.2637 17.5722C66.2604 18.5985 66.2574 19.5314 66.2418 20.5148C66.2262 20.8705 66.2262 21.1638 66.2262 21.4336V21.4363V22.2027L66.9276 21.8939C67.2453 21.7541 67.5381 21.6163 67.8175 21.4849C68.3828 21.2189 68.8931 20.9789 69.4431 20.7997L69.2881 20.3243L69.4431 20.7997C71.537 20.1173 73.674 20.2689 75.8599 20.7757C78.1453 21.5565 80.0745 22.8501 81.6092 24.7223C82.8025 26.1781 83.5816 27.8401 83.9803 29.6929C84.0081 29.822 84.0436 29.9562 84.0923 30.1406C84.1187 30.2407 84.1491 30.3556 84.1842 30.4925ZM80.8108 44.6834L80.8097 44.6831L80.8108 44.6834Z" stroke="#F03333" shape-rendering="crispEdges"/>
</g>
<g filter="url(#filter4_dd_281_452)">
<path d="M16.5219 17.8456L16.5192 17.8701L16.5189 17.8948C16.5097 18.6629 16.5006 19.4312 16.4905 20.3401L16.4904 20.3401L16.4905 20.3499C16.4982 21.2586 16.5068 22.0271 16.5153 22.7947C16.5115 23.1413 16.5098 23.4857 16.508 23.8454C16.5061 24.2072 16.5042 24.5845 16.5 24.9949C16.4994 25.0561 16.4986 25.1155 16.4979 25.1729C16.4951 25.3802 16.4927 25.5608 16.4995 25.7048C16.496 25.8115 16.4964 25.9172 16.4967 26.0248L16.4967 26.0367C16.4971 26.1581 16.4974 26.2898 16.4933 26.4514L16.4932 26.4514L16.4932 26.4635C16.4928 26.8845 16.4928 27.1794 16.4928 27.7189V28.8983L17.3404 28.0783C18.75 26.7147 21.0659 24.6971 23.3801 22.683L23.4833 22.5932C25.6724 20.688 27.8482 18.7943 29.2014 17.5H35.8276C35.564 17.7747 35.2444 18.1078 34.8811 18.4863C33.8135 19.5985 32.3687 21.1028 30.86 22.6712C27.8401 25.8104 24.5706 29.1992 23.5509 30.2203L23.1929 30.5787L23.556 30.932L32.0323 39.1782L32.831 39.9551L32.8805 38.842C32.8881 38.6718 32.8958 38.5246 32.9028 38.3931C32.9159 38.145 32.926 37.953 32.9262 37.7686C32.927 37.1728 32.9279 36.577 32.9288 35.981C32.9329 33.315 32.937 30.647 32.9236 27.9794C32.9214 27.5406 33.0198 27.2611 33.3016 26.9852C34.2658 26.0413 35.2173 25.0982 36.1676 24.1564C37.3032 23.0307 38.4371 21.9069 39.5885 20.7858C39.6838 20.693 39.9168 20.6008 40.1079 20.5994C43.1901 20.5764 46.2721 20.5746 49.3534 20.6025C49.5228 20.6041 49.7822 20.709 49.9544 20.8583C50.5694 21.3911 51.158 21.9474 51.7557 22.5122C51.9576 22.703 52.1605 22.8947 52.3657 23.0868L52.3746 23.1127L52.4543 23.1937C53.7519 24.5121 55.0254 25.7952 56.3272 27.0505C56.4773 27.1953 56.5665 27.3251 56.6211 27.4552C56.6758 27.5854 56.7069 27.7422 56.7054 27.9558C56.6954 29.3815 56.6974 30.807 56.6994 32.23L56.6996 32.395C56.7017 33.8735 56.7033 35.3495 56.6909 36.8249C56.6846 37.5776 56.9303 38.1529 57.4629 38.6635C59.1593 40.2898 60.844 41.9282 62.5301 43.5681C62.8363 43.8658 63.1425 44.1636 63.4488 44.4614C63.3779 44.4614 63.307 44.4615 63.2363 44.4615C61.4749 44.4626 59.7866 44.4636 58.0986 44.4483C58.0927 44.4449 58.0849 44.4403 58.0754 44.4339C58.0281 44.4024 57.9723 44.3541 57.9124 44.296L57.5642 44.6548L57.9124 44.296C56.1696 42.6047 54.429 40.9148 52.7048 39.2088C51.9626 38.4746 51.2354 37.729 50.5071 36.9824C50.2624 36.7315 50.0176 36.4805 49.772 36.2298C49.7772 36.2222 49.7825 36.2146 49.7879 36.2068C49.8057 36.181 49.8244 36.1539 49.8444 36.1248C51.2099 34.1284 51.4328 31.9526 50.4061 29.7623C49.3751 27.5627 47.5573 26.3714 45.1423 26.1998C42.8177 26.0347 40.5081 27.3091 39.4574 29.3799C38.2671 31.7259 38.5062 34.5519 40.1103 36.4652C41.6056 38.2487 44.3029 39.1104 46.5085 38.327C46.7612 38.2372 46.8813 38.2509 46.9545 38.2741C47.0469 38.3033 47.1589 38.3766 47.3585 38.569C48.6747 39.8378 50.0029 41.0984 51.3294 42.3574C52.0816 43.0714 52.8333 43.7848 53.5819 44.4989C52.5636 44.4971 51.5451 44.4953 50.5268 44.4935C43.4911 44.4812 36.4566 44.4688 29.4222 44.4289C29.1956 44.4276 28.8349 44.2603 28.6071 44.0364L28.2565 44.3929L28.6071 44.0364C25.9513 41.4258 23.3113 38.7998 20.6701 36.1726C19.7485 35.2559 18.8268 34.339 17.9042 33.4226C17.8158 33.3349 17.7235 33.2614 17.6328 33.1917C17.6042 33.1697 17.5758 33.1481 17.5467 33.1259C17.4783 33.074 17.4059 33.0189 17.3175 32.9486L16.5061 32.3027V33.3398V33.3629V33.3859V33.409V33.4321V33.4551V33.4782V33.5013V33.5243V33.5474V33.5704V33.5935V33.6165V33.6395V33.6626V33.6856V33.7086V33.7317V33.7547V33.7777V33.8007V33.8237V33.8467V33.8697V33.8927V33.9157V33.9387V33.9617V33.9847V34.0077V34.0307V34.0537V34.0766V34.0996V34.1226V34.1455V34.1685V34.1915V34.2144V34.2374V34.2603V34.2833V34.3062V34.3291V34.3521V34.375V34.3979V34.4209V34.4438V34.4667V34.4896V34.5126V34.5355V34.5584V34.5813V34.6042V34.6271V34.65V34.6729V34.6958V34.7187V34.7415V34.7644V34.7873V34.8102V34.833V34.8559V34.8788V34.9017V34.9245V34.9474V34.9702V34.9931V35.0159V35.0388V35.0616V35.0845V35.1073V35.1301V35.153V35.1758V35.1986V35.2215V35.2443V35.2671V35.2899V35.3127V35.3355V35.3583V35.3812V35.404V35.4268V35.4496V35.4723V35.4951V35.5179V35.5407V35.5635V35.5863V35.6091V35.6318V35.6546V35.6774V35.7002V35.7229V35.7457V35.7684V35.7912V35.814V35.8367V35.8595V35.8822V35.905V35.9277V35.9504V35.9732V35.9959V36.0187V36.0414V36.0641V36.0868V36.1096V36.1323V36.155V36.1777V36.2004V36.2232V36.2459V36.2686V36.2913V36.314V36.3367V36.3594V36.3821V36.4048V36.4275V36.4502V36.4728V36.4955V36.5182V36.5409V36.5636V36.5862V36.6089V36.6316V36.6543V36.6769V36.6996V36.7223V36.7449V36.7676V36.7902V36.8129V36.8355V36.8582V36.8808V36.9035V36.9261V36.9488V36.9714V36.9941V37.0167V37.0393V37.062V37.0846V37.1072V37.1298V37.1525V37.1751V37.1977V37.2203V37.2429V37.2656V37.2882V37.3108V37.3334V37.356V37.3786V37.4012V37.4238V37.4464V37.469V37.4916V37.5142V37.5368V37.5594V37.582V37.6046V37.6272V37.6497V37.6723V37.6949V37.7175V37.7401V37.7626V37.7852V37.8078V37.8303V37.8529V37.8755V37.898V37.9206V37.9432V37.9657V37.9883V38.0109V38.0334V38.056V38.0785V38.1011V38.1236V38.1462V38.1687V38.1913V38.2138V38.2363V38.2589V38.2814V38.304V38.3265V38.349V38.3716V38.3941V38.4166V38.4392V38.4617V38.4842V38.5067V38.5293V38.5518V38.5743V38.5968V38.6193V38.6419V38.6644V38.6869V38.7094V38.7319V38.7544V38.7769V38.7994V38.8219V38.8445V38.867V38.8895V38.912V38.9345V38.957V38.9795V39.002V39.0245V39.0469V39.0694V39.0919V39.1144V39.1369V39.1594V39.1819V39.2044V39.2269V39.2494V39.2718V39.2943V39.3168V39.3393V39.3618V39.3842V39.4067V39.4292V39.4517V39.4741V39.4966V39.5191V39.5416V39.564V39.5865V39.609V39.6314V39.6539V39.6764V39.6988V39.7213V39.7438V39.7662V39.7887V39.8112V39.8336V39.8561V39.8785V39.901V39.9235V39.9459V39.9684V39.9908V40.0133V40.0357V40.0582V40.0806V40.1031V40.1255V40.148V40.1704V40.1929V40.2153V40.2378V40.2602V40.2827V40.3051V40.3276V40.35V40.3725V40.3949V40.4173V40.4398V40.4622V40.4847V40.5071V40.5296V40.552V40.5744V40.5969V40.6193V40.6417V40.6642V40.6866V40.7091V40.7315V40.7539V40.7764V40.7988V40.8212V40.8437V40.8661V40.8885V40.911V40.9334V40.9558V40.9783V41.0007V41.0231V41.0456V41.068V41.0904V41.1129V41.1353V41.1577V41.1801V41.2026V41.225V41.2474V41.2699V41.2923V41.3147V41.3371V41.3596V41.382V41.4044V41.4269V41.4493V41.4717V41.4941V41.5166V41.539V41.5614V41.5838V41.6063V41.6287V41.6511V41.6736V41.696V41.7184V41.7408V41.7633V41.7857V41.8081V41.8305V41.853V41.8754V41.8978V41.9202V41.9427V41.9651V41.9875V42.01V42.0324V42.0548V42.0772V42.0997V42.1221V42.1445V42.167V42.1894V42.2118V42.2342V42.2567V42.2791V42.3015V42.324V42.3464V42.3688V42.3913V42.4137V42.4361V42.4585V42.481V42.5034V42.5258V42.5483V42.5707V42.5931V42.6156V42.638V42.6605V42.6829V42.7053V42.7278V42.7502V42.7726V42.7951V42.8175V42.84V42.8624V42.8848V42.9073V42.9297V42.9521V42.9746V42.997V43.0195V43.0419V43.0644V43.0868V43.1093V43.1317V43.1541V43.1766V43.199V43.2215V43.2439V43.2664V43.2888V43.3113V43.3337V43.3562V43.3786V43.4011V43.4236V43.446V43.4685V43.4909V43.5134V43.5358V43.5583V43.5808V43.6032V43.6257V43.6481V43.6706V43.6931V43.7155V43.738V43.7605V43.7829V43.8054V43.8279V43.8503V43.8728V43.8953V43.9178V43.9402V43.9627V43.9852V44.0077V44.0301V44.0526V44.0751V44.0976V44.12V44.1425V44.165V44.1875V44.21V44.2325V44.255V44.2775V44.2999V44.3224V44.3449V44.3674V44.3899V44.4076H16.5049H16.491H16.4771H16.4632H16.4493H16.4355H16.4216H16.4077H16.3938H16.3799H16.366H16.3522H16.3383H16.3244H16.3105H16.2966H16.2828H16.2689H16.255H16.2412H16.2273H16.2134H16.1996H16.1857H16.1718H16.158H16.1441H16.1303H16.1164H16.1026H16.0887H16.0749H16.061H16.0472H16.0333H16.0195H16.0056H15.9918H15.9779H15.9641H15.9502H15.9364H15.9226H15.9087H15.8949H15.8811H15.8672H15.8534H15.8396H15.8258H15.8119H15.7981H15.7843H15.7705H15.7566H15.7428H15.729H15.7152H15.7014H15.6875H15.6737H15.6599H15.6461H15.6323H15.6185H15.6047H15.5909H15.5771H15.5633H15.5495H15.5357H15.5219H15.5081H15.4943H15.4805H15.4667H15.4529H15.4391H15.4253H15.4115H15.3977H15.3839H15.3702H15.3564H15.3426H15.3288H15.315H15.3012H15.2875H15.2737H15.2599H15.2461H15.2324H15.2186H15.2048H15.1911H15.1773H15.1635H15.1497H15.136H15.1222H15.1085H15.0947H15.0809H15.0672H15.0534H15.0397H15.0259H15.0121H14.9984H14.9846H14.9709H14.9571H14.9434H14.9296H14.9159H14.9021H14.8884H14.8747H14.8609H14.8472H14.8334H14.8197H14.8059H14.7922H14.7785H14.7647H14.751H14.7373H14.7235H14.7098H14.6961H14.6823H14.6686H14.6549H14.6412H14.6274H14.6137H14.6H14.5863H14.5725H14.5588H14.5451H14.5314H14.5177H14.504H14.4902H14.4765H14.4628H14.4491H14.4354H14.4217H14.408H14.3943H14.3806H14.3669H14.3531H14.3394H14.3257H14.312H14.2983H14.2846H14.2709H14.2572H14.2435H14.2298H14.2162H14.2025H14.1888H14.1751H14.1614H14.1477H14.134H14.1203H14.1066H14.0929H14.0792H14.0656H14.0519H14.0382H14.0245H14.0108H13.9972H13.9835H13.9698H13.9561H13.9424H13.9288H13.9151H13.9014H13.8877H13.8741H13.8604H13.8467H13.8331H13.8194H13.8057H13.792H13.7784H13.7647H13.751H13.7374H13.7237H13.7101H13.6964H13.6827H13.6691H13.6554H13.6418H13.6281H13.6144H13.6008H13.5871H13.5735H13.5598H13.5462H13.5325H13.5189H13.5052H13.4916H13.4779H13.4643H13.4506H13.437H13.4233H13.4097H13.396H13.3824H13.3687H13.3551H13.3415H13.3278H13.3142H13.3005H13.2869H13.2733H13.2596H13.246H13.2324H13.2187H13.2051H13.1915H13.1778H13.1642H13.1506H13.1369H13.1233H13.1097H13.096H13.0824H13.0688H13.0552H13.0415H13.0279H13.0143H13.0007H12.987H12.9734H12.9598H12.9462H12.9325H12.9189H12.9053H12.8917H12.8781H12.8644H12.8508H12.8372H12.8236H12.81H12.7964H12.7828H12.7691H12.7555H12.7419H12.7283H12.7147H12.7011H12.6875H12.6739H12.6603H12.6466H12.633H12.6194H12.6058H12.5922H12.5786H12.565H12.5514H12.5378H12.5242H12.5106H12.497H12.4834H12.4698H12.4562H12.4426H12.429H12.4154H12.4018H12.3882H12.3746H12.361H12.3474H12.3338H12.3202H12.3066H12.293H12.2794H12.2658H12.2522H12.2386H12.2251H12.2115H12.1979H12.1843H12.1707H12.1571H12.1435H12.1299H12.1163H12.1028H12.0892H12.0756H12.062H12.0484H12.0348H12.0212H12.0076H11.9941H11.9805H11.9669H11.9533H11.9397H11.9261H11.9126H11.899H11.8854H11.8718H11.8582H11.8447H11.8311H11.8175H11.8039H11.7903H11.7768H11.7632H11.7496H11.736H11.7225H11.7089H11.6953H11.6817H11.6682H11.6546H11.641H11.6274H11.6139H11.6003H11.5867H11.5731H11.5596H11.546H11.5324H11.5188H11.5053H11.4917H11.4781H11.4646H11.451H11.4374H11.4239H11.4103H11.3967H11.3831H11.3696H11.356H11.3424H11.3289H11.3153H11.3017H11.2882H11.2746H11.261H11.2475H11.2339H11.2203H11.2068H11.1932H11.1796H11.1661H11.1525H11.139H11.1254H11.1118H11.0983H11.0847H11.0711H11.0576H11.044H11.0304H11.0169H11.0033H10.9898H10.9762H10.9626H10.9491H10.9355H10.922H10.9084H10.8948H10.8813H10.8677H10.8541H10.8406H10.827H10.8135H10.7999H10.7863H10.7728H10.7592H10.7457H10.7321H10.7185H10.705H10.6914H10.6779H10.6643H10.6508H10.6372H10.6236H10.6101H10.5965H10.583H10.5694H10.5558H10.5423H10.5287H10.5152H10.5016H10.5V44.3638V44.2958V44.2279V44.1599V44.0919V44.0239V43.956V43.888V43.82V43.7521V43.6841V43.6161V43.5481V43.4802V43.4122V43.3442V43.2763V43.2083V43.1403V43.0723V43.0044V42.9364V42.8684V42.8005V42.7325V42.6645V42.5965V42.5286V42.4606V42.3926V42.3247V42.2567V42.1887V42.1207V42.0528V41.9848V41.9168V41.8489V41.7809V41.7129V41.6449V41.577V41.509V41.441V41.3731V41.3051V41.2371V41.1691V41.1012V41.0332V40.9652V40.8973V40.8293V40.7613V40.6933V40.6254V40.5574V40.4894V40.4215V40.3535V40.2855V40.2175V40.1496V40.0816V40.0136V39.9456V39.8777V39.8097V39.7417V39.6737V39.6058V39.5378V39.4698V39.4018V39.3339V39.2659V39.1979V39.1299V39.062V38.994V38.926V38.858V38.7901V38.7221V38.6541V38.5861V38.5181V38.4502V38.3822V38.3142V38.2462V38.1782V38.1103V38.0423V37.9743V37.9063V37.8383V37.7703V37.7024V37.6344V37.5664V37.4984V37.4304V37.3624V37.2945V37.2265V37.1585V37.0905V37.0225V36.9545V36.8865V36.8185V36.7506V36.6826V36.6146V36.5466V36.4786V36.4106V36.3426V36.2746V36.2066V36.1386V36.0706V36.0026V35.9346V35.8666V35.7986V35.7306V35.6626V35.5947V35.5267V35.4587V35.3907V35.3227V35.2546V35.1866V35.1186V35.0506V34.9826V34.9146V34.8466V34.7786V34.7106V34.6426V34.5746V34.5066V34.4386V34.3706V34.3026V34.2345V34.1665V34.0985V34.0305V33.9625V33.8945V33.8265V33.7584V33.6904V33.6224V33.5544V33.4864V33.4184V33.3503V33.2823V33.2143V33.1463V33.0782V33.0102V32.9422V32.8742V32.8061V32.7381V32.6701V32.602V32.534V32.466V32.398V32.3299V32.2619V32.1938V32.1258V32.0578V31.9897V31.9217V31.8537V31.7856V31.7176V31.6495V31.5815V31.5134V31.4454V31.3774V31.3093V31.2413V31.1732V31.1052V31.0371V30.9691V30.901V30.8329V30.7649V30.6968V30.6288V30.5607V30.4927V30.4246V30.3565V30.2885V30.2204V30.1523V30.0843V30.0162V29.9481V29.8801V29.812V29.7439V29.6759V29.6078V29.5397V29.4716V29.4036V29.3355V29.2674V29.1993V29.1312V29.0632V28.9951V28.927V28.8589V28.7908V28.7227V28.6546V28.5865V28.5185V28.4504V28.3823V28.3142V28.2461V28.178V28.1099V28.0418V27.9737V27.9056V27.8375V27.7694V27.7013V27.6331V27.565V27.4969V27.4288V27.3607V27.2926V27.2245V27.1563V27.0882V27.0201V26.952V26.8839V26.8157V26.7476V26.6795V26.6114V26.5432V26.4751V26.407V26.3388V26.2707V26.2025V26.1344V26.0663V25.9981V25.93V25.8618V25.7937V25.7255V25.6574V25.5892V25.5211V25.4529V25.3848V25.3166V25.2485V25.1803V25.1122V25.044V24.9758V24.9077V24.8395V24.7713V24.7032V24.635V24.5668V24.4986V24.4305V24.3623V24.2941V24.2259V24.1577V24.0896V24.0214V23.9532V23.885V23.8168V23.7486V23.6804V23.6122V23.544V23.4758V23.4076V23.3394V23.2712V23.203V23.1348V23.0666V22.9984V22.9302V22.8619V22.7937V22.7255V22.6573V22.5891V22.5208V22.4526V22.3844V22.3162V22.2479V22.1797V22.1115V22.0432V21.975V21.9068V21.8385V21.7703V21.702V21.6338V21.5655V21.4973V21.429V21.3608V21.2925V21.2243V21.156V21.0877V21.0195V20.9512V20.8829V20.8147V20.7464V20.6781V20.6098V20.5416V20.4733V20.405V20.3367V20.2684V20.2002V20.1319V20.0636V19.9953V19.927V19.8587V19.7904V19.7221V19.6538V19.5855V19.5172V19.4489V19.3806V19.3122V19.2439V19.1756V19.1073V19.039V18.9707V18.9023V18.834V18.7657V18.6973V18.629V18.5607V18.4923V18.424V18.3556V18.2873V18.219V18.1506V18.0823V18.0139V17.9455V17.8772V17.8088V17.7405V17.6721V17.6037V17.5354V17.467V17.3986V17.3303V17.2619V17.1935V17.1251V17.0567V16.9883V16.92V16.8516V16.7832V16.7148V16.6464V16.578V16.5096V16.4412V16.3728V16.3044V16.2359V16.1675V16.0991V16.0307V15.9623V15.8939V15.8254V15.757V15.6886V15.6201V15.5517V15.4833V15.4148V15.3464V15.2779V15.2095V15.141V15.0726V15.0041V14.9357V14.8672V14.7988V14.7303V14.6618V14.5934V14.5249V14.4564V14.3879V14.3195V14.251V14.1825V14.114V14.0455V13.977V13.9085V13.84V13.7715V13.703V13.6345V13.566V13.4975V13.429V13.3605V13.292V13.2235V13.1549V13.0864V13.0179V12.9494V12.8808V12.8123V12.7437V12.6752V12.6067V12.5381V12.4696V12.401V12.3325V12.2639V12.1953V12.1268V12.0582V11.9897V11.9211V11.8525V11.7839V11.7154V11.6468V11.5782V11.5096V11.441V11.3724V11.3038V11.2352V11.1993C12.2027 12.8849 14.1568 14.8091 15.7812 16.3735C16.3208 16.8932 16.5851 17.2772 16.5219 17.8456Z" stroke="#F03333" shape-rendering="crispEdges"/>
</g>
<defs>
<filter id="filter0_f_281_452" x="0" y="0" width="120" height="55" filterUnits="userSpaceOnUse" color-interpolation-filters="sRGB">
<feFlood flood-opacity="0" result="BackgroundImageFix"/>
<feBlend mode="normal" in="SourceGraphic" in2="BackgroundImageFix" result="shape"/>
<feGaussianBlur stdDeviation="5" result="effect1_foregroundBlur_281_452"/>
</filter>
<filter id="filter1_d_281_452" x="55.6182" y="10" width="58.2808" height="42.9381" filterUnits="userSpaceOnUse" color-interpolation-filters="sRGB">
<feFlood flood-opacity="0" result="BackgroundImageFix"/>
<feColorMatrix in="SourceAlpha" type="matrix" values="0 0 0 0 0 0 0 0 0 0 0 0 0 0 0 0 0 0 127 0" result="hardAlpha"/>
<feOffset dy="4"/>
<feGaussianBlur stdDeviation="2"/>
<feComposite in2="hardAlpha" operator="out"/>
<feColorMatrix type="matrix" values="0 0 0 0 0 0 0 0 0 0 0 0 0 0 0 0 0 0 0.25 0"/>
<feBlend mode="normal" in2="BackgroundImageFix" result="effect1_dropShadow_281_452"/>
<feBlend mode="normal" in="SourceGraphic" in2="effect1_dropShadow_281_452" result="shape"/>
</filter>
<filter id="filter2_d_281_452" x="6" y="10" width="62.6182" height="43" filterUnits="userSpaceOnUse" color-interpolation-filters="sRGB">
<feFlood flood-opacity="0" result="BackgroundImageFix"/>
<feColorMatrix in="SourceAlpha" type="matrix" values="0 0 0 0 0 0 0 0 0 0 0 0 0 0 0 0 0 0 127 0" result="hardAlpha"/>
<feOffset dy="4"/>
<feGaussianBlur stdDeviation="2"/>
<feComposite in2="hardAlpha" operator="out"/>
<feColorMatrix type="matrix" values="0 0 0 0 0 0 0 0 0 0 0 0 0 0 0 0 0 0 0.25 0"/>
<feBlend mode="normal" in2="BackgroundImageFix" result="effect1_dropShadow_281_452"/>
<feBlend mode="normal" in="SourceGraphic" in2="effect1_dropShadow_281_452" result="shape"/>
</filter>
<filter id="filter3_d_281_452" x="55.6182" y="10" width="58.2808" height="42.9381" filterUnits="userSpaceOnUse" color-interpolation-filters="sRGB">
<feFlood flood-opacity="0" result="BackgroundImageFix"/>
<feColorMatrix in="SourceAlpha" type="matrix" values="0 0 0 0 0 0 0 0 0 0 0 0 0 0 0 0 0 0 127 0" result="hardAlpha"/>
<feOffset dy="4"/>
<feGaussianBlur stdDeviation="2"/>
<feComposite in2="hardAlpha" operator="out"/>
<feColorMatrix type="matrix" values="0 0 0 0 0 0 0 0 0 0 0 0 0 0 0 0 0 0 1 0"/>
<feBlend mode="normal" in2="BackgroundImageFix" result="effect1_dropShadow_281_452"/>
<feBlend mode="normal" in="SourceGraphic" in2="effect1_dropShadow_281_452" result="shape"/>
</filter>
<filter id="filter4_dd_281_452" x="6" y="10" width="62.6182" height="43" filterUnits="userSpaceOnUse" color-interpolation-filters="sRGB">
<feFlood flood-opacity="0" result="BackgroundImageFix"/>
<feColorMatrix in="SourceAlpha" type="matrix" values="0 0 0 0 0 0 0 0 0 0 0 0 0 0 0 0 0 0 127 0" result="hardAlpha"/>
<feOffset dy="4"/>
<feGaussianBlur stdDeviation="2"/>
<feComposite in2="hardAlpha" operator="out"/>
<feColorMatrix type="matrix" values="0 0 0 0 0 0 0 0 0 0 0 0 0 0 0 0 0 0 1 0"/>
<feBlend mode="normal" in2="BackgroundImageFix" result="effect1_dropShadow_281_452"/>
<feColorMatrix in="SourceAlpha" type="matrix" values="0 0 0 0 0 0 0 0 0 0 0 0 0 0 0 0 0 0 127 0" result="hardAlpha"/>
<feOffset dy="4"/>
<feGaussianBlur stdDeviation="2"/>
<feComposite in2="hardAlpha" operator="out"/>
<feColorMatrix type="matrix" values="0 0 0 0 0 0 0 0 0 0 0 0 0 0 0 0 0 0 0.25 0"/>
<feBlend mode="normal" in2="effect1_dropShadow_281_452" result="effect2_dropShadow_281_452"/>
<feBlend mode="normal" in="SourceGraphic" in2="effect2_dropShadow_281_452" result="shape"/>
</filter>
</defs>
</svg>
